<svg xmlns="http://www.w3.org/2000/svg" width="348" height="348">
<rect width="100%" height="100%" fill="white"/>
<rect x="60" y="48" width="12" height="12" rx="3.5999999999999996" fill="black"/>
<rect x="72" y="48" width="12" height="12" rx="3.5999999999999996" fill="black"/>
<rect x="96" y="48" width="12" height="12" rx="3.5999999999999996" fill="black"/>
<rect x="108" y="48" width="12" height="12" rx="3.5999999999999996" fill="black"/>
<rect x="156" y="48" width="12" height="12" rx="3.5999999999999996" fill="black"/>
<rect x="168" y="48" width="12" height="12" rx="3.5999999999999996" fill="black"/>
<rect x="180" y="48" width="12" height="12" rx="3.5999999999999996" fill="black"/>
<rect x="204" y="48" width="12" height="12" rx="3.5999999999999996" fill="black"/>
<rect x="216" y="48" width="12" height="12" rx="3.5999999999999996" fill="black"/>
<rect x="240" y="48" width="12" height="12" rx="3.5999999999999996" fill="black"/>
<rect x="252" y="48" width="12" height="12" rx="3.5999999999999996" fill="black"/>
<rect x="276" y="48" width="12" height="12" rx="3.5999999999999996" fill="black"/>
<rect x="288" y="48" width="12" height="12" rx="3.5999999999999996" fill="black"/>
<rect x="48" y="60" width="12" height="12" rx="3.5999999999999996" fill="black"/>
<rect x="72" y="60" width="12" height="12" rx="3.5999999999999996" fill="black"/>
<rect x="108" y="60" width="12" height="12" rx="3.5999999999999996" fill="black"/>
<rect x="120" y="60" width="12" height="12" rx="3.5999999999999996" fill="black"/>
<rect x="144" y="60" width="12" height="12" rx="3.5999999999999996" fill="black"/>
<rect x="156" y="60" width="12" height="12" rx="3.5999999999999996" fill="black"/>
<rect x="168" y="60" width="12" height="12" rx="3.5999999999999996" fill="black"/>
<rect x="192" y="60" width="12" height="12" rx="3.5999999999999996" fill="black"/>
<rect x="204" y="60" width="12" height="12" rx="3.5999999999999996" fill="black"/>
<rect x="252" y="60" width="12" height="12" rx="3.5999999999999996" fill="black"/>
<rect x="48" y="72" width="12" height="12" rx="3.5999999999999996" fill="black"/>
<rect x="60" y="72" width="12" height="12" rx="3.5999999999999996" fill="black"/>
<rect x="72" y="72" width="12" height="12" rx="3.5999999999999996" fill="black"/>
<rect x="84" y="72" width="12" height="12" rx="3.5999999999999996" fill="black"/>
<rect x="120" y="72" width="12" height="12" rx="3.5999999999999996" fill="black"/>
<rect x="132" y="72" width="12" height="12" rx="3.5999999999999996" fill="black"/>
<rect x="156" y="72" width="12" height="12" rx="3.5999999999999996" fill="black"/>
<rect x="168" y="72" width="12" height="12" rx="3.5999999999999996" fill="black"/>
<rect x="192" y="72" width="12" height="12" rx="3.5999999999999996" fill="black"/>
<rect x="204" y="72" width="12" height="12" rx="3.5999999999999996" fill="black"/>
<rect x="216" y="72" width="12" height="12" rx="3.5999999999999996" fill="black"/>
<rect x="252" y="72" width="12" height="12" rx="3.5999999999999996" fill="black"/>
<rect x="264" y="72" width="12" height="12" rx="3.5999999999999996" fill="black"/>
<rect x="276" y="72" width="12" height="12" rx="3.5999999999999996" fill="black"/>
<rect x="288" y="72" width="12" height="12" rx="3.5999999999999996" fill="black"/>
<rect x="72" y="84" width="12" height="12" rx="3.5999999999999996" fill="black"/>
<rect x="96" y="84" width="12" height="12" rx="3.5999999999999996" fill="black"/>
<rect x="156" y="84" width="12" height="12" rx="3.5999999999999996" fill="black"/>
<rect x="192" y="84" width="12" height="12" rx="3.5999999999999996" fill="black"/>
<rect x="216" y="84" width="12" height="12" rx="3.5999999999999996" fill="black"/>
<rect x="228" y="84" width="12" height="12" rx="3.5999999999999996" fill="black"/>
<rect x="240" y="84" width="12" height="12" rx="3.5999999999999996" fill="black"/>
<rect x="252" y="84" width="12" height="12" rx="3.5999999999999996" fill="black"/>
<rect x="288" y="84" width="12" height="12" rx="3.5999999999999996" fill="black"/>
<rect x="48" y="96" width="12" height="12" rx="3.5999999999999996" fill="black"/>
<rect x="84" y="96" width="12" height="12" rx="3.5999999999999996" fill="black"/>
<rect x="96" y="96" width="12" height="12" rx="3.5999999999999996" fill="black"/>
<rect x="108" y="96" width="12" height="12" rx="3.5999999999999996" fill="black"/>
<rect x="120" y="96" width="12" height="12" rx="3.5999999999999996" fill="black"/>
<rect x="144" y="96" width="12" height="12" rx="3.5999999999999996" fill="black"/>
<rect x="168" y="96" width="12" height="12" rx="3.5999999999999996" fill="black"/>
<rect x="180" y="96" width="12" height="12" rx="3.5999999999999996" fill="black"/>
<rect x="192" y="96" width="12" height="12" rx="3.5999999999999996" fill="black"/>
<rect x="240" y="96" width="12" height="12" rx="3.5999999999999996" fill="black"/>
<rect x="264" y="96" width="12" height="12" rx="3.5999999999999996" fill="black"/>
<rect x="48" y="108" width="12" height="12" rx="3.5999999999999996" fill="black"/>
<rect x="60" y="108" width="12" height="12" rx="3.5999999999999996" fill="black"/>
<rect x="96" y="108" width="12" height="12" rx="3.5999999999999996" fill="black"/>
<rect x="120" y="108" width="12" height="12" rx="3.5999999999999996" fill="black"/>
<rect x="132" y="108" width="12" height="12" rx="3.5999999999999996" fill="black"/>
<rect x="180" y="108" width="12" height="12" rx="3.5999999999999996" fill="black"/>
<rect x="204" y="108" width="12" height="12" rx="3.5999999999999996" fill="black"/>
<rect x="216" y="108" width="12" height="12" rx="3.5999999999999996" fill="black"/>
<rect x="240" y="108" width="12" height="12" rx="3.5999999999999996" fill="black"/>
<rect x="276" y="108" width="12" height="12" rx="3.5999999999999996" fill="black"/>
<rect x="288" y="108" width="12" height="12" rx="3.5999999999999996" fill="black"/>
<rect x="60" y="120" width="12" height="12" rx="3.5999999999999996" fill="black"/>
<rect x="72" y="120" width="12" height="12" rx="3.5999999999999996" fill="black"/>
<rect x="96" y="120" width="12" height="12" rx="3.5999999999999996" fill="black"/>
<rect x="108" y="120" width="12" height="12" rx="3.5999999999999996" fill="black"/>
<rect x="180" y="120" width="12" height="12" rx="3.5999999999999996" fill="black"/>
<rect x="192" y="120" width="12" height="12" rx="3.5999999999999996" fill="black"/>
<rect x="216" y="120" width="12" height="12" rx="3.5999999999999996" fill="black"/>
<rect x="240" y="120" width="12" height="12" rx="3.5999999999999996" fill="black"/>
<rect x="252" y="120" width="12" height="12" rx="3.5999999999999996" fill="black"/>
<rect x="276" y="120" width="12" height="12" rx="3.5999999999999996" fill="black"/>
<rect x="288" y="120" width="12" height="12" rx="3.5999999999999996" fill="black"/>
<rect x="72" y="132" width="12" height="12" rx="3.5999999999999996" fill="black"/>
<rect x="108" y="132" width="12" height="12" rx="3.5999999999999996" fill="black"/>
<rect x="144" y="132" width="12" height="12" rx="3.5999999999999996" fill="black"/>
<rect x="156" y="132" width="12" height="12" rx="3.5999999999999996" fill="black"/>
<rect x="192" y="132" width="12" height="12" rx="3.5999999999999996" fill="black"/>
<rect x="240" y="132" width="12" height="12" rx="3.5999999999999996" fill="black"/>
<rect x="276" y="132" width="12" height="12" rx="3.5999999999999996" fill="black"/>
<rect x="288" y="132" width="12" height="12" rx="3.5999999999999996" fill="black"/>
<rect x="60" y="144" width="12" height="12" rx="3.5999999999999996" fill="black"/>
<rect x="96" y="144" width="12" height="12" rx="3.5999999999999996" fill="black"/>
<rect x="132" y="144" width="12" height="12" rx="3.5999999999999996" fill="black"/>
<rect x="156" y="144" width="12" height="12" rx="3.5999999999999996" fill="black"/>
<rect x="168" y="144" width="12" height="12" rx="3.5999999999999996" fill="black"/>
<rect x="180" y="144" width="12" height="12" rx="3.5999999999999996" fill="black"/>
<rect x="192" y="144" width="12" height="12" rx="3.5999999999999996" fill="black"/>
<rect x="204" y="144" width="12" height="12" rx="3.5999999999999996" fill="black"/>
<rect x="228" y="144" width="12" height="12" rx="3.5999999999999996" fill="black"/>
<rect x="48" y="156" width="12" height="12" rx="3.5999999999999996" fill="black"/>
<rect x="84" y="156" width="12" height="12" rx="3.5999999999999996" fill="black"/>
<rect x="156" y="156" width="12" height="12" rx="3.5999999999999996" fill="black"/>
<rect x="192" y="156" width="12" height="12" rx="3.5999999999999996" fill="black"/>
<rect x="204" y="156" width="12" height="12" rx="3.5999999999999996" fill="black"/>
<rect x="216" y="156" width="12" height="12" rx="3.5999999999999996" fill="black"/>
<rect x="252" y="156" width="12" height="12" rx="3.5999999999999996" fill="black"/>
<rect x="72" y="168" width="12" height="12" rx="3.5999999999999996" fill="black"/>
<rect x="108" y="168" width="12" height="12" rx="3.5999999999999996" fill="black"/>
<rect x="144" y="168" width="12" height="12" rx="3.5999999999999996" fill="black"/>
<rect x="180" y="168" width="12" height="12" rx="3.5999999999999996" fill="black"/>
<rect x="192" y="168" width="12" height="12" rx="3.5999999999999996" fill="black"/>
<rect x="204" y="168" width="12" height="12" rx="3.5999999999999996" fill="black"/>
<rect x="252" y="168" width="12" height="12" rx="3.5999999999999996" fill="black"/>
<rect x="276" y="168" width="12" height="12" rx="3.5999999999999996" fill="black"/>
<rect x="288" y="168" width="12" height="12" rx="3.5999999999999996" fill="black"/>
<rect x="60" y="180" width="12" height="12" rx="3.5999999999999996" fill="black"/>
<rect x="96" y="180" width="12" height="12" rx="3.5999999999999996" fill="black"/>
<rect x="120" y="180" width="12" height="12" rx="3.5999999999999996" fill="black"/>
<rect x="132" y="180" width="12" height="12" rx="3.5999999999999996" fill="black"/>
<rect x="156" y="180" width="12" height="12" rx="3.5999999999999996" fill="black"/>
<rect x="228" y="180" width="12" height="12" rx="3.5999999999999996" fill="black"/>
<rect x="240" y="180" width="12" height="12" rx="3.5999999999999996" fill="black"/>
<rect x="252" y="180" width="12" height="12" rx="3.5999999999999996" fill="black"/>
<rect x="276" y="180" width="12" height="12" rx="3.5999999999999996" fill="black"/>
<rect x="48" y="192" width="12" height="12" rx="3.5999999999999996" fill="black"/>
<rect x="84" y="192" width="12" height="12" rx="3.5999999999999996" fill="black"/>
<rect x="120" y="192" width="12" height="12" rx="3.5999999999999996" fill="black"/>
<rect x="168" y="192" width="12" height="12" rx="3.5999999999999996" fill="black"/>
<rect x="192" y="192" width="12" height="12" rx="3.5999999999999996" fill="black"/>
<rect x="216" y="192" width="12" height="12" rx="3.5999999999999996" fill="black"/>
<rect x="228" y="192" width="12" height="12" rx="3.5999999999999996" fill="black"/>
<rect x="264" y="192" width="12" height="12" rx="3.5999999999999996" fill="black"/>
<rect x="288" y="192" width="12" height="12" rx="3.5999999999999996" fill="black"/>
<rect x="72" y="204" width="12" height="12" rx="3.5999999999999996" fill="black"/>
<rect x="108" y="204" width="12" height="12" rx="3.5999999999999996" fill="black"/>
<rect x="144" y="204" width="12" height="12" rx="3.5999999999999996" fill="black"/>
<rect x="168" y="204" width="12" height="12" rx="3.5999999999999996" fill="black"/>
<rect x="180" y="204" width="12" height="12" rx="3.5999999999999996" fill="black"/>
<rect x="192" y="204" width="12" height="12" rx="3.5999999999999996" fill="black"/>
<rect x="216" y="204" width="12" height="12" rx="3.5999999999999996" fill="black"/>
<rect x="252" y="204" width="12" height="12" rx="3.5999999999999996" fill="black"/>
<rect x="264" y="204" width="12" height="12" rx="3.5999999999999996" fill="black"/>
<rect x="288" y="204" width="12" height="12" rx="3.5999999999999996" fill="black"/>
<rect x="48" y="216" width="12" height="12" rx="3.5999999999999996" fill="black"/>
<rect x="72" y="216" width="12" height="12" rx="3.5999999999999996" fill="black"/>
<rect x="84" y="216" width="12" height="12" rx="3.5999999999999996" fill="black"/>
<rect x="108" y="216" width="12" height="12" rx="3.5999999999999996" fill="black"/>
<rect x="120" y="216" width="12" height="12" rx="3.5999999999999996" fill="black"/>
<rect x="132" y="216" width="12" height="12" rx="3.5999999999999996" fill="black"/>
<rect x="180" y="216" width="12" height="12" rx="3.5999999999999996" fill="black"/>
<rect x="204" y="216" width="12" height="12" rx="3.5999999999999996" fill="black"/>
<rect x="228" y="216" width="12" height="12" rx="3.5999999999999996" fill="black"/>
<rect x="84" y="228" width="12" height="12" rx="3.5999999999999996" fill="black"/>
<rect x="180" y="228" width="12" height="12" rx="3.5999999999999996" fill="black"/>
<rect x="216" y="228" width="12" height="12" rx="3.5999999999999996" fill="black"/>
<rect x="228" y="228" width="12" height="12" rx="3.5999999999999996" fill="black"/>
<rect x="240" y="228" width="12" height="12" rx="3.5999999999999996" fill="black"/>
<rect x="252" y="228" width="12" height="12" rx="3.5999999999999996" fill="black"/>
<rect x="264" y="228" width="12" height="12" rx="3.5999999999999996" fill="black"/>
<rect x="276" y="228" width="12" height="12" rx="3.5999999999999996" fill="black"/>
<rect x="48" y="240" width="12" height="12" rx="3.5999999999999996" fill="black"/>
<rect x="84" y="240" width="12" height="12" rx="3.5999999999999996" fill="black"/>
<rect x="96" y="240" width="12" height="12" rx="3.5999999999999996" fill="black"/>
<rect x="108" y="240" width="12" height="12" rx="3.5999999999999996" fill="black"/>
<rect x="120" y="240" width="12" height="12" rx="3.5999999999999996" fill="black"/>
<rect x="192" y="240" width="12" height="12" rx="3.5999999999999996" fill="black"/>
<rect x="216" y="240" width="12" height="12" rx="3.5999999999999996" fill="black"/>
<rect x="228" y="240" width="12" height="12" rx="3.5999999999999996" fill="black"/>
<rect x="240" y="240" width="12" height="12" rx="3.5999999999999996" fill="black"/>
<rect x="252" y="240" width="12" height="12" rx="3.5999999999999996" fill="black"/>
<rect x="276" y="240" width="12" height="12" rx="3.5999999999999996" fill="black"/>
<rect x="288" y="240" width="12" height="12" rx="3.5999999999999996" fill="black"/>
<rect x="48" y="252" width="12" height="12" rx="3.5999999999999996" fill="black"/>
<rect x="60" y="252" width="12" height="12" rx="3.5999999999999996" fill="black"/>
<rect x="72" y="252" width="12" height="12" rx="3.5999999999999996" fill="black"/>
<rect x="84" y="252" width="12" height="12" rx="3.5999999999999996" fill="black"/>
<rect x="120" y="252" width="12" height="12" rx="3.5999999999999996" fill="black"/>
<rect x="156" y="252" width="12" height="12" rx="3.5999999999999996" fill="black"/>
<rect x="216" y="252" width="12" height="12" rx="3.5999999999999996" fill="black"/>
<rect x="228" y="252" width="12" height="12" rx="3.5999999999999996" fill="black"/>
<rect x="240" y="252" width="12" height="12" rx="3.5999999999999996" fill="black"/>
<rect x="252" y="252" width="12" height="12" rx="3.5999999999999996" fill="black"/>
<rect x="264" y="252" width="12" height="12" rx="3.5999999999999996" fill="black"/>
<rect x="276" y="252" width="12" height="12" rx="3.5999999999999996" fill="black"/>
<rect x="72" y="264" width="12" height="12" rx="3.5999999999999996" fill="black"/>
<rect x="96" y="264" width="12" height="12" rx="3.5999999999999996" fill="black"/>
<rect x="132" y="264" width="12" height="12" rx="3.5999999999999996" fill="black"/>
<rect x="156" y="264" width="12" height="12" rx="3.5999999999999996" fill="black"/>
<rect x="204" y="264" width="12" height="12" rx="3.5999999999999996" fill="black"/>
<rect x="216" y="264" width="12" height="12" rx="3.5999999999999996" fill="black"/>
<rect x="228" y="264" width="12" height="12" rx="3.5999999999999996" fill="black"/>
<rect x="252" y="264" width="12" height="12" rx="3.5999999999999996" fill="black"/>
<rect x="48" y="276" width="12" height="12" rx="3.5999999999999996" fill="black"/>
<rect x="72" y="276" width="12" height="12" rx="3.5999999999999996" fill="black"/>
<rect x="108" y="276" width="12" height="12" rx="3.5999999999999996" fill="black"/>
<rect x="120" y="276" width="12" height="12" rx="3.5999999999999996" fill="black"/>
<rect x="144" y="276" width="12" height="12" rx="3.5999999999999996" fill="black"/>
<rect x="168" y="276" width="12" height="12" rx="3.5999999999999996" fill="black"/>
<rect x="180" y="276" width="12" height="12" rx="3.5999999999999996" fill="black"/>
<rect x="204" y="276" width="12" height="12" rx="3.5999999999999996" fill="black"/>
<rect x="216" y="276" width="12" height="12" rx="3.5999999999999996" fill="black"/>
<rect x="228" y="276" width="12" height="12" rx="3.5999999999999996" fill="black"/>
<rect x="252" y="276" width="12" height="12" rx="3.5999999999999996" fill="black"/>
<rect x="288" y="276" width="12" height="12" rx="3.5999999999999996" fill="black"/>
<rect x="48" y="288" width="12" height="12" rx="3.5999999999999996" fill="black"/>
<rect x="72" y="288" width="12" height="12" rx="3.5999999999999996" fill="black"/>
<rect x="84" y="288" width="12" height="12" rx="3.5999999999999996" fill="black"/>
<rect x="108" y="288" width="12" height="12" rx="3.5999999999999996" fill="black"/>
<rect x="120" y="288" width="12" height="12" rx="3.5999999999999996" fill="black"/>
<rect x="144" y="288" width="12" height="12" rx="3.5999999999999996" fill="black"/>
<rect x="204" y="288" width="12" height="12" rx="3.5999999999999996" fill="black"/>
<rect x="216" y="288" width="12" height="12" rx="3.5999999999999996" fill="black"/>
<rect x="240" y="288" width="12" height="12" rx="3.5999999999999996" fill="black"/>
</svg>